<?xml version="1.0" standalone="no"?>
<!DOCTYPE svg PUBLIC "-//W3C//DTD SVG 20010904//EN"
 "http://www.w3.org/TR/2001/REC-SVG-20010904/DTD/svg10.dtd">
<svg version="1.0" xmlns="http://www.w3.org/2000/svg"
 width="16.000000pt" height="16.000000pt" viewBox="0 0 16.000000 16.000000"
 preserveAspectRatio="xMidYMid meet">
<metadata>
Created by potrace 1.11, written by Peter Selinger 2001-2013
</metadata>
<g transform="translate(0.000000,16.000000) scale(0.001600,-0.001600)"
fill="#000000" stroke="none">
<path d="M4817 9824 c-1 -1 -63 -5 -137 -9 -74 -3 -137 -8 -140 -10 -3 -1 -39
-5 -80 -9 -41 -3 -87 -8 -102 -11 -16 -3 -40 -7 -55 -9 -16 -2 -50 -7 -78 -11
-27 -3 -81 -13 -120 -20 -38 -8 -81 -16 -95 -19 -211 -39 -534 -133 -781 -226
-197 -75 -531 -231 -660 -309 -19 -12 -41 -24 -49 -28 -8 -3 -50 -28 -93 -55
-43 -26 -80 -48 -82 -48 -2 0 -70 -46 -152 -101 -583 -398 -1061 -899 -1432
-1499 -43 -69 -81 -132 -84 -140 -4 -8 -17 -31 -28 -50 -29 -47 -139 -264
-189 -373 -129 -282 -263 -683 -325 -977 -9 -41 -18 -84 -21 -95 -2 -11 -7
-33 -9 -50 -3 -16 -8 -37 -10 -45 -2 -8 -6 -37 -10 -64 -3 -27 -8 -52 -9 -55
-2 -3 -7 -37 -11 -76 -4 -38 -8 -72 -10 -75 -2 -3 -6 -39 -10 -80 -4 -41 -9
-88 -11 -105 -9 -87 -17 -298 -17 -430 0 -243 15 -452 50 -700 4 -27 7 -57 8
-65 1 -8 4 -28 8 -45 3 -16 8 -46 11 -65 9 -65 45 -234 71 -335 14 -55 28
-107 30 -115 33 -129 118 -374 196 -567 78 -194 250 -540 323 -653 13 -19 45
-71 72 -115 26 -44 51 -82 54 -85 3 -3 29 -41 59 -85 284 -420 685 -839 1106
-1155 125 -94 389 -270 405 -270 5 0 10 -4 10 -9 0 -5 8 -11 18 -15 9 -3 31
-14 47 -23 261 -156 740 -373 823 -373 l39 0 31 83 c17 45 39 105 50 132 11
28 40 104 65 170 25 66 60 156 77 200 17 44 41 107 54 140 188 495 268 704
276 720 5 11 102 263 216 560 113 297 221 578 239 625 111 286 185 483 182
486 -1 2 -45 20 -97 40 -220 84 -409 205 -564 358 -117 117 -147 151 -221 261
-240 358 -326 807 -236 1238 114 547 526 1009 1061 1190 86 29 152 47 195 54
17 2 36 6 44 9 32 11 154 19 286 19 162 0 256 -10 375 -40 470 -120 853 -425
1065 -850 57 -116 105 -239 119 -307 3 -13 12 -54 20 -93 72 -321 21 -730
-127 -1022 -78 -153 -106 -198 -186 -298 -187 -234 -405 -396 -692 -511 -63
-26 -115 -48 -117 -49 -1 -1 29 -83 66 -181 38 -98 120 -312 182 -474 62 -162
118 -308 125 -325 7 -16 18 -46 25 -65 7 -19 18 -48 25 -65 7 -16 21 -55 33
-85 11 -30 32 -84 45 -120 14 -36 60 -155 102 -265 42 -110 87 -227 100 -260
61 -156 175 -456 175 -461 0 -3 8 -24 19 -47 10 -23 81 -205 157 -405 l138
-362 37 0 c34 0 141 37 264 91 119 52 146 64 260 121 239 120 490 269 655 388
78 57 235 175 240 180 3 3 34 29 70 59 168 138 414 375 545 526 39 44 78 89
89 100 10 11 30 36 44 55 15 19 29 37 33 40 3 3 39 50 80 105 414 549 706
1162 868 1821 17 66 32 130 34 144 3 14 12 60 21 103 9 42 19 96 22 120 3 23
7 51 9 62 2 11 6 43 10 70 3 28 8 61 10 75 4 23 9 65 20 175 9 90 19 338 18
460 0 125 -11 380 -18 414 -1 9 -6 50 -10 91 -4 41 -9 82 -10 90 -1 8 -6 40
-9 70 -4 30 -11 78 -16 105 -5 28 -11 64 -14 80 -12 87 -81 389 -106 470 -6
17 -24 75 -41 130 -123 401 -323 839 -537 1175 -81 126 -280 410 -302 430 -3
3 -21 25 -40 50 -19 25 -39 50 -45 56 -5 6 -28 32 -50 59 -91 110 -261 285
-406 420 -425 393 -928 715 -1454 932 -60 25 -121 50 -135 56 -14 5 -29 11
-35 13 -5 2 -73 25 -150 52 -234 81 -491 148 -740 192 -33 5 -69 12 -80 14
-11 2 -42 7 -68 10 -27 4 -57 9 -66 11 -10 2 -51 6 -92 10 -41 3 -85 8 -99 10
-91 13 -631 30 -643 19z"/>
</g>
</svg>
